<?xml version="1.0" standalone="no"?>
<!DOCTYPE svg PUBLIC "-//W3C//DTD SVG 20010904//EN"
 "http://www.w3.org/TR/2001/REC-SVG-20010904/DTD/svg10.dtd">
<svg version="1.0" xmlns="http://www.w3.org/2000/svg"
 width="700.000000pt" height="700.000000pt" viewBox="0 0 700.000000 700.000000"
 preserveAspectRatio="xMidYMid meet">
<metadata>
Created by potrace 1.11, written by Peter Selinger 2001-2013
</metadata>
<g transform="translate(0.000000,700.000000) scale(0.100000,-0.100000)"
fill="#000000" stroke="none">
<path d="M875 6125 l-875 -874 0 -2626 0 -2625 875 875 875 875 0 1750 0 1750
876 0 875 0 875 875 875 875 -1751 0 -1751 0 -874 -875z"/>
<path d="M6118 6119 l-868 -869 0 -1750 0 -1750 -875 0 -876 0 -875 -875 -875
-875 1751 0 1751 0 875 875 874 874 0 2621 c0 1441 -3 2620 -7 2619 -5 0 -398
-392 -875 -870z"/>
<path d="M2631 4370 c-8 -6 -9 -1739 -1 -1741 17 -4 1740 -3 1741 1 1 3 2 395
3 873 1 574 -2 867 -9 868 -33 4 -1728 3 -1734 -1z"/>
</g>
</svg>
